Coordinates
version=1
nRows=17
nColumns=34
inDegrees=yes

Units are S.I. units (second, meters, Newtons, ...)
If the header above contains a line with 'inDegrees', this indicates whether rotational values are in degrees (yes) or radians (no).

endheader
time	pelvis_tilt	pelvis_list	pelvis_rotation	pelvis_tx	pelvis_ty	pelvis_tz	hip_flexion_r	hip_adduction_r	hip_rotation_r	knee_angle_r	ankle_angle_r	subtalar_angle_r	mtp_angle_r	hip_flexion_l	hip_adduction_l	hip_rotation_l	knee_angle_l	ankle_angle_l	subtalar_angle_l	mtp_angle_l	lumbar_extension	lumbar_bending	lumbar_rotation	arm_flex_r	arm_add_r	arm_rot_r	elbow_flex_r	pro_sup_r	arm_flex_l	arm_add_l	arm_rot_l	elbow_flex_l	pro_sup_l
      2.03333330	    -13.08764258	     16.31650658	    -60.93710144	     -0.05672440	      0.62241717	     -0.31718684	     91.17810318	    -13.10037684	      9.62404158	    112.99520598	     32.94435714	     -3.47969082	      0.00000000	     94.59924283	    -12.57127725	      8.75051899	    111.28157805	     32.12535797	     -2.79792221	      0.00000000	    -31.99970684	      2.40523845	     -3.45267304	     77.68351909	    -15.53339160	     19.97455061	    102.45044700	    119.74817918	     77.76757925	    -14.89198387	     19.76880257	    100.54579171	    119.74817918
      2.05000000	    -13.09975234	     16.32924620	    -60.92053151	     -0.05760834	      0.61937030	     -0.31902664	     91.70586485	    -13.03074513	      9.83917109	    113.39801843	     33.02157780	     -3.50679504	      0.00000000	     95.10648590	    -12.46572160	      8.91475246	    111.64084372	     32.15875222	     -2.80480666	      0.00000000	    -32.33474047	      2.40470328	     -3.42612709	     78.21684452	    -15.42479718	     19.83037716	    102.30387910	    119.74817918	     78.18976268	    -14.67276976	     19.66413004	    100.54037169	    119.74817918
      2.06666670	    -13.12206426	     16.36376059	    -60.87782186	     -0.05866689	      0.61618998	     -0.32084278	     92.31193517	    -12.96901783	     10.05736280	    113.84931983	     33.03184234	     -3.47085858	      0.00000000	     95.69112148	    -12.41300701	      9.04656132	    112.02103813	     32.12130269	     -2.78555985	      0.00000000	    -32.61455858	      2.40023989	     -3.38684720	     78.78894125	    -15.28091075	     19.71228434	    102.02052694	    119.74817918	     78.61057943	    -14.40059288	     19.53617662	    100.45990603	    119.74817918
      2.08333330	    -13.14044754	     16.37666862	    -60.87224360	     -0.05943336	      0.61293548	     -0.32248507	     92.88501460	    -12.92292037	     10.29113037	    114.29571657	     33.04520724	     -3.42557904	      0.00000000	     96.27378179	    -12.35857880	      9.18616506	    112.45932357	     32.08420288	     -2.78267617	      0.00000000	    -32.89031379	      2.38837162	     -3.34884079	     79.30227919	    -15.13396925	     19.59856082	    101.83565708	    119.74817918	     78.99665907	    -14.15833341	     19.38063679	    100.48395708	    119.74817918
      2.10000000	    -13.15919697	     16.40980769	    -60.86075190	     -0.06026075	      0.60967659	     -0.32404464	     93.48923583	    -12.86614731	     10.53280580	    114.75694322	     33.05615304	     -3.35783367	      0.00000000	     96.86605265	    -12.31372590	      9.32713799	    112.88300608	     32.02733700	     -2.78289107	      0.00000000	    -33.14238707	      2.38762414	     -3.30015711	     79.80954018	    -14.98181955	     19.49077041	    101.72683026	    119.74817918	     79.36876955	    -13.92976617	     19.20529238	    100.60889042	    119.74817918
      2.11666670	    -13.30786108	     16.69496597	    -60.86362558	     -0.06105335	      0.60547036	     -0.32556760	     94.48272385	    -12.82087339	     10.79329719	    115.27143513	     32.95953118	     -3.11481982	      0.00000000	     97.84835628	    -12.33516771	      9.44487484	    113.38323159	     31.78899296	     -2.85089460	      0.00000000	    -32.93644132	      2.38391388	     -3.28339194	     80.15548265	    -14.79124377	     19.58871042	    101.60369380	    119.74817918	     79.44237112	    -13.76908710	     18.94571671	    100.89503272	    119.74817918
      2.13333330	    -13.27945933	     16.61540173	    -60.84704812	     -0.06169033	      0.60239411	     -0.32691506	     94.90159999	    -12.76818002	     10.99909999	    115.70679514	     33.06424605	     -3.15824991	      0.00000000	     98.28135740	    -12.24909918	      9.59741464	    113.79690652	     31.85251263	     -2.89315769	      0.00000000	    -33.27496694	      2.40116950	     -3.27469845	     80.52501270	    -14.66727604	     19.50213406	    101.69363934	    119.74817918	     79.79729051	    -13.60759524	     18.89892834	    101.08032120	    119.74817918
      2.15000000	    -13.36464553	     16.72047710	    -60.79283529	     -0.06247288	      0.59893111	     -0.32841401	     95.59322618	    -12.76760620	     11.18302200	    116.13951321	     33.06135853	     -3.03769946	      0.00000000	     98.98368114	    -12.22326894	      9.71518812	    114.18375989	     31.74136447	     -2.88662048	      0.00000000	    -33.33317157	      2.43016478	     -3.26772248	     80.85365215	    -14.54609197	     19.61606288	    101.72505988	    119.74817918	     80.07040512	    -13.51767041	     18.97073102	    101.29667050	    119.74817918
      2.16666670	    -13.32403740	     16.62859521	    -60.79035991	     -0.06313749	      0.59598158	     -0.32962113	     95.96060719	    -12.72061571	     11.36776304	    116.55143267	     33.13789504	     -3.06865643	      0.00000000	     99.36627564	    -12.12343900	      9.88856920	    114.58280780	     31.78940194	     -2.92645292	      0.00000000	    -33.62746779	      2.41976734	     -3.25475253	     81.10363300	    -14.40285564	     19.62668902	    101.75925557	    119.74817918	     80.31973887	    -13.39306721	     18.98013408	    101.36295370	    119.74817918
      2.18333330	    -13.35005375	     16.64867123	    -60.75970084	     -0.06403606	      0.59314491	     -0.33114052	     96.46532109	    -12.65803562	     11.54955958	    116.91044010	     33.17207662	     -3.02856656	      0.00000000	     99.86329068	    -12.03960510	     10.04629678	    114.87467724	     31.76414686	     -2.93006154	      0.00000000	    -33.82258838	      2.41696416	     -3.20348869	     81.44737019	    -14.25649965	     19.75122261	    101.69328289	    119.74817918	     80.65942745	    -13.30940792	     19.09615934	    101.37784218	    119.74817918
      2.20000000	    -13.36440611	     16.62782689	    -60.75400647	     -0.06482897	      0.59036043	     -0.33258594	     96.93189568	    -12.60794768	     11.70538382	    117.26698722	     33.17822577	     -3.00405689	      0.00000000	    100.33062075	    -11.97157603	     10.20396681	    115.20767633	     31.72592555	     -2.95624185	      0.00000000	    -34.01879741	      2.40567581	     -3.18482150	     81.70012713	    -14.11164452	     19.91064020	    101.62285033	    119.74817918	     80.92288204	    -13.22489555	     19.25024926	    101.37750265	    119.74817918
      2.21666670	    -13.38578538	     16.61772968	    -60.74139553	     -0.06562907	      0.58775297	     -0.33397034	     97.38632930	    -12.55614569	     11.85064076	    117.60866025	     33.17259965	     -3.00001458	      0.00000000	    100.79089027	    -11.90374912	     10.36513360	    115.52762123	     31.68503915	     -2.99637140	      0.00000000	    -34.21486743	      2.39114148	     -3.16168149	     81.94948298	    -13.96695066	     20.05461203	    101.58053769	    119.74817918	     81.19887908	    -13.14962665	     19.41042883	    101.41095240	    119.74817918
      2.23333330	    -13.45068195	     16.64684773	    -60.72847664	     -0.06636417	      0.58496649	     -0.33531039	     97.92675461	    -12.53390353	     11.96252580	    117.96929082	     33.10985345	     -3.00300753	      0.00000000	    101.35484592	    -11.87449199	     10.52257207	    115.87720827	     31.57734385	     -3.06086847	      0.00000000	    -34.30967371	      2.39881390	     -3.14038756	     82.14018767	    -13.83628950	     20.25386865	    101.56823453	    119.74817918	     81.44473687	    -13.12632680	     19.65549072	    101.49257382	    119.74817918
      2.25000000	    -13.41518025	     16.54289194	    -60.73920823	     -0.06695398	      0.58241552	     -0.33632838	     98.27202040	    -12.47063141	     12.12599597	    118.37872944	     33.14587086	     -3.04069970	      0.00000000	    101.69496666	    -11.76222605	     10.72419812	    116.26857888	     31.59956992	     -3.10193930	      0.00000000	    -34.58052972	      2.38309936	     -3.13565000	     82.31632147	    -13.71973783	     20.28003044	    101.65975876	    119.74817918	     81.64633910	    -13.04224630	     19.68641752	    101.59645823	    119.74817918
      2.26666670	    -13.40527615	     16.47560454	    -60.73806666	     -0.06760391	      0.57962819	     -0.33728077	     98.69911092	    -12.41825631	     12.29710918	    118.82304670	     33.15018662	     -3.02380820	      0.00000000	    102.12434852	    -11.67393416	     10.93416029	    116.67748436	     31.58822604	     -3.11350377	      0.00000000	    -34.78929832	      2.37461673	     -3.08525678	     82.52459643	    -13.63484425	     20.35189036	    101.78173866	    119.74817918	     81.86932612	    -13.01555359	     19.76076111	    101.74420663	    119.74817918
      2.28333330	    -13.46890121	     16.50994980	    -60.76014015	     -0.06818273	      0.57618285	     -0.33804532	     99.31259205	    -12.39563109	     12.44235555	    119.31575755	     33.15189020	     -2.89510930	      0.00000000	    102.76889690	    -11.68225075	     11.16242277	    117.18381819	     31.54356119	     -3.05714853	      0.00000000	    -34.76309707	      2.37831364	     -3.00552576	     82.65815378	    -13.56883342	     20.49939853	    101.86365483	    119.74817918	     81.97496528	    -12.99369674	     19.83335802	    101.90993299	    119.74817918
      2.30000000	    -13.38076409	     16.32951981	    -60.77422321	     -0.06860772	      0.57314913	     -0.33859707	     99.61291016	    -12.39723167	     12.62518959	    119.83783033	     33.21937513	     -2.94164000	      0.00000000	    103.08697878	    -11.62527774	     11.35997267	    117.69689018	     31.60138827	     -3.09697229	      0.00000000	    -35.03005912	      2.35542771	     -2.98380030	     82.82599551	    -13.48942801	     20.45420358	    101.88905737	    119.74817918	     82.12410998	    -12.92122595	     19.77122739	    101.96040861	    119.74817918
